HIERARCHY
ROOT Hips
{
	OFFSET 0.00000 0.00000 0.00000
	CHANNELS 6 Xposition Yposition Zposition Zrotation Yrotation Xrotation 
	JOINT LHipJoint
	{
		OFFSET 0 0 0
		CHANNELS 3 Zrotation Yrotation Xrotation
		JOINT LeftHip
		{
			OFFSET 1.46561 -1.72757 0.83774
			CHANNELS 3 Zrotation Yrotation Xrotation
			JOINT LeftKnee
			{
				OFFSET 2.48915 -6.83890 0.00000
				CHANNELS 3 Zrotation Yrotation Xrotation
				JOINT LeftAnkle
				{
					OFFSET 2.60555 -7.15868 0.00000
					CHANNELS 3 Zrotation Yrotation Xrotation
					JOINT LeftToe
					{
						OFFSET 0.19248 -0.52884 2.26738
						CHANNELS 3 Zrotation Yrotation Xrotation
						End Site
						{
							OFFSET 0.00000 -0.00000 1.17015
						}
					}
				}
			}
		}
	}
	JOINT RHipJoint
	{
		OFFSET 0 0 0
		CHANNELS 3 Zrotation Yrotation Xrotation
		JOINT RightHip
		{
			OFFSET -1.46918 -1.72757 0.83774
			CHANNELS 3 Zrotation Yrotation Xrotation
			JOINT RightKnee
			{
				OFFSET -2.49034 -6.84216 0.00000
				CHANNELS 3 Zrotation Yrotation Xrotation
				JOINT RightAnkle
				{
					OFFSET -2.65971 -7.30750 0.00000
					CHANNELS 3 Zrotation Yrotation Xrotation
					JOINT RightToe
					{
						OFFSET -0.19227 -0.52827 2.30785
						CHANNELS 3 Zrotation Yrotation Xrotation
						End Site
						{
							OFFSET -0.00000 -0.00000 1.18972
						}
					}
				}
			}
		}
	}
	JOINT lowerback
	{
		OFFSET 0 0 0
		CHANNELS 3 Zrotation Yrotation Xrotation
		JOINT Chest
		{
			OFFSET 0.02432 2.19909 -0.28000
			CHANNELS 3 Zrotation Yrotation Xrotation
			JOINT Chest2
			{
				OFFSET 0.03714 2.21816 -0.15261
				CHANNELS 3 Zrotation Yrotation Xrotation
				JOINT lowerneck
				{
					OFFSET 0 0 0
					CHANNELS 3 Zrotation Yrotation Xrotation
					JOINT Neck
					{
						OFFSET -0.01896 1.56165 0.21681
						CHANNELS 3 Zrotation Yrotation Xrotation
						JOINT Head
						{
							OFFSET 0.02744 1.56009 0.06764
							CHANNELS 3 Zrotation Yrotation Xrotation
							End Site
							{
								OFFSET 0.01212 1.60574 0.00298
							}
						}
					}
				}
				JOINT LeftCollar
				{
					OFFSET 0 0 0
					CHANNELS 3 Zrotation Yrotation Xrotation
					JOINT LeftShoulder
					{
						OFFSET 3.05595 1.48048 -0.60794
CHANNELS 3 Zrotation Xrotation Yrotation
						JOINT LeftElbow
						{
OFFSET 0 -5.206070 -0.000000
CHANNELS 3 Zrotation Xrotation Yrotation
							JOINT LeftWrist
							{
OFFSET 0 -3.399610 0.000000
CHANNELS 3 Zrotation Xrotation Yrotation
								JOINT lhand
								{
									OFFSET 0 0 0
CHANNELS 3 Zrotation Xrotation Yrotation
									JOINT LFingers
									{
OFFSET 0 -0.519690 0.000000
CHANNELS 3 Zrotation Xrotation Yrotation
										End Site
										{
OFFSET 0 -0.418990 0.000000
										}
									}
								}
								JOINT LThumb
								{
OFFSET 0 0.000000 0.000000
CHANNELS 3 Zrotation Xrotation Yrotation
									End Site
									{
OFFSET 0 -0.425390 0.425390
									}
								}
							}
						}
					}
				}
				JOINT RightCollar
				{
					OFFSET 0 0 0
					CHANNELS 3 Zrotation Yrotation Xrotation
					JOINT RightShoulder
					{
						OFFSET -2.99052 1.57608 -0.69102
CHANNELS 3 Zrotation Xrotation Yrotation
						JOINT RightElbow
						{
OFFSET 0 -5.322140 0.000000
CHANNELS 3 Zrotation Xrotation Yrotation
							JOINT RightWrist
							{
OFFSET 0 -3.512080 0.000000
CHANNELS 3 Zrotation Xrotation Yrotation
								JOINT rhand
								{
									OFFSET 0 0 0
CHANNELS 3 Zrotation Xrotation Yrotation
									JOINT RFingers
									{
OFFSET 0 -0.586680 0.000000
CHANNELS 3 Zrotation Xrotation Yrotation
										End Site
										{
OFFSET 0 -0.473000 0.000000
										}
									}
								}
								JOINT RThumb
								{
OFFSET 0 0.000000 0.000000
CHANNELS 3 Zrotation Xrotation Yrotation
									End Site
									{
OFFSET 0 -0.480220 0.480220
									}
								}
							}
						}
					}
				}
			}
		}
	}
}
MOTION
Frames: 4
Frame Time: 0.008333333333333333
0.362500 17.563300 -13.854500 -1.790400 0.364500 5.811400 0.000000 0.000000 0.000000 -16.715600 4.494500 -11.538600 0.669200 5.231400 14.569700 0.336800 0.313100 -11.080800 0.198100 -2.865900 -7.905600 0.000000 0.000000 0.000000 20.252700 0.004500 -11.722900 -1.004200 -6.376700 17.881400 -0.510000 3.139500 -12.781400 -0.054500 -1.506600 4.143800 0.804300 -0.826800 -4.775800 1.661000 -1.223900 1.549400 1.161500 -0.609600 4.299400 -2.767700 -0.459700 -13.366500 1.640300 -0.287500 6.768500 0.930900 -0.118800 4.197400 -0.000000 -0.000000 0.000000 0.635300 -7.220900 -30.285800 9.725800 -16.309600 1.397000 24.403700 -3.115400 2.727100 0.000000 0.000000 0.000000 -7.125000 0.000000 0.000000 -1.678800 26.984700 -0.734500 -0.000000 -0.000000 0.000000 -0.561900 -6.096000 5.616700 -12.785700 -20.972300 -2.376000 -18.833900 42.736300 25.898100 0.000000 0.000000 0.000000 7.125000 0.000000 -0.000000 12.085600 56.727200 -3.509300
0.362889 17.563106 -13.853820 -1.759600 0.379949 5.805667 0.000000 0.000000 0.000000 -16.751744 4.530256 -11.543264 0.668617 5.229068 14.562996 0.338063 0.260924 -11.080897 0.196837 -2.857253 -7.881601 0.000000 0.000000 0.000000 20.216556 0.011204 -11.715613 -1.005949 -6.381947 17.896752 -0.510000 3.125023 -12.783246 -0.054403 -1.505726 4.141468 0.778066 -0.825828 -4.786391 1.655073 -1.220888 1.548817 1.170245 -0.608628 4.305035 -2.757887 -0.445709 -13.350954 1.629807 -0.269525 6.711563 0.927305 -0.110153 4.176802 0.000000 0.000000 0.000000 0.640255 -7.197775 -30.162890 9.680231 -16.237894 1.384175 24.376689 -3.027760 2.822805 0.000000 0.000000 0.000000 -7.125000 0.000000 0.000000 -1.699495 26.880251 -0.747811 0.000000 0.000000 0.000000 -0.578223 -6.088033 5.577252 -12.770348 -20.949758 -2.370559 -18.927078 42.832296 25.882554 0.000000 0.000000 0.000000 7.125000 0.000000 0.000000 11.980082 56.731184 -3.479180
0.363938 17.562628 -13.853140 -1.771434 0.395397 5.794653 0.000000 0.000000 0.000000 -16.742519 4.547241 -11.534722 0.667845 5.226359 14.555254 0.338383 0.239969 -11.077882 0.198875 -2.871997 -7.922591 0.000000 0.000000 0.000000 20.225970 0.021587 -11.702383 -1.007226 -6.385873 17.908236 -0.511509 3.106961 -12.803580 -0.053457 -1.492400 4.104708 0.800692 -0.827026 -4.787360 1.663295 -1.224290 1.547291 1.165784 -0.609826 4.303879 -2.758449 -0.435773 -13.373138 1.617804 -0.254285 6.687828 0.924748 -0.103203 4.172710 0.000000 0.000000 0.000000 0.639834 -7.170406 -30.028756 9.651357 -16.192411 1.376160 24.377504 -2.954740 2.910303 0.000000 0.000000 0.000000 -7.125000 0.000000 0.000000 -1.698968 26.784197 -0.751407 0.000000 0.000000 0.000000 -0.597376 -6.110060 5.474985 -12.743112 -20.909673 -2.360779 -18.893485 42.860756 25.837485 0.000000 0.000000 0.000000 7.125000 0.000000 0.000000 11.992375 56.679045 -3.467641
0.365464 17.562691 -13.853283 -1.757013 0.403436 5.790615 0.000000 0.000000 0.000000 -16.763857 4.549206 -11.527522 0.667068 5.223089 14.545926 0.338400 0.230017 -11.074864 0.198177 -2.866862 -7.908358 0.000000 0.000000 0.000000 20.203729 0.013509 -11.705808 -1.008672 -6.390308 17.921068 -0.512057 3.108645 -12.810747 -0.054223 -1.502853 4.133514 0.803381 -0.823898 -4.789321 1.660964 -1.220292 1.549945 1.162207 -0.607704 4.307551 -2.768746 -0.434651 -13.407892 1.618930 -0.249832 6.655578 0.927070 -0.100970 4.168292 0.000000 0.000000 0.000000 0.647210 -7.158096 -29.977719 9.631769 -16.161531 1.370668 24.353722 -2.935496 2.853464 0.000000 0.000000 0.000000 -7.125000 0.000000 0.000000 -1.717106 26.847214 -0.756906 0.000000 0.000000 0.000000 -0.617621 -6.131984 5.426999 -12.730247 -20.890650 -2.356175 -18.923869 42.906122 25.841021 0.000000 0.000000 0.000000 7.125000 0.000000 0.000000 11.962286 56.689074 -3.461694
